<svg xmlns="http://www.w3.org/2000/svg" xmlns:xlink="http://www.w3.org/1999/xlink" width="690" height="353" viewBox="0 0 690 353"><defs><style>.a{fill:url(#a);}.b{fill:url(#b);}.c{clip-path:url(#c);}.d{opacity:0.418;fill:url(#d);}.e{opacity:0.1;}.e,.f,.g{fill:url(#e);}.f{opacity:0.216;}.g{opacity:0.3;}</style><linearGradient id="a" x1="0.361" y1="-0.776" x2="0.555" y2="1.074" gradientUnits="objectBoundingBox"><stop offset="0" stop-color="#f5cf41"/><stop offset="1" stop-color="#b26c1b"/></linearGradient><linearGradient id="b" x1="-0.2" y1="-1.026" x2="0.72" y2="1.049" gradientUnits="objectBoundingBox"><stop offset="0" stop-color="#41d6f5"/><stop offset="1" stop-color="#2252a7"/></linearGradient><clipPath id="c"><rect class="a" width="690" height="353" rx="30"/></clipPath><linearGradient id="d" y1="0.481" x2="0.976" y2="0.658" gradientUnits="objectBoundingBox"><stop offset="0" stop-color="#41d6f5"/><stop offset="1" stop-color="#1b52b2"/></linearGradient><linearGradient id="e" x1="0.374" y1="0.551" x2="0.058" y2="0.865" xlink:href="#d"/></defs><rect class="b" width="690" height="353" rx="30"/><g class="c"><rect class="d" width="360.556" height="233" rx="116.5" transform="matrix(0.921, 0.391, -0.391, 0.921, 530.025, -154.888)"/><path class="e" d="M0,0S78.787,250.459,232.068,235.432s218.4,96.176,218.4,96.176L21.234,321.37Z" transform="translate(0 34.667)"/><path class="f" d="M0,0S65.763,185.173,295.145,198.157s174.671,90.957,174.671,90.957L24.865,277.42Z" transform="translate(0 135.016)"/><path class="g" d="M0,0S31.777,147.492,95.7,152.546s74.255,61.179,74.255,61.179L9.64,194.618Z" transform="translate(0 168.003)"/></g></svg>