<svg xmlns="http://www.w3.org/2000/svg" xmlns:xlink="http://www.w3.org/1999/xlink" width="64" height="64" viewBox="0 0 64 64">
  <defs>
    <linearGradient id="linear-gradient" x1="0.077" x2="1" y2="1" gradientUnits="objectBoundingBox">
      <stop offset="0" stop-color="#41d6f5"/>
      <stop offset="1" stop-color="#4d8eff"/>
    </linearGradient>
    <linearGradient id="linear-gradient-2" x1="0.5" x2="0.5" y2="1" gradientUnits="objectBoundingBox">
      <stop offset="0" stop-color="#41d6f5"/>
      <stop offset="1" stop-color="#0f97b4"/>
    </linearGradient>
  </defs>
  <g id="icon_64_OTC" data-name="icon/64/OTC" transform="translate(7 7)">
    <rect id="矩形_3371" data-name="矩形 3371" width="64" height="64" rx="20" transform="translate(-7 -7)" fill="url(#linear-gradient)"/>
    <g id="浏览器" transform="translate(7 7)">
      <rect id="矩形" width="36" height="36" opacity="0" fill="url(#linear-gradient-2)"/>
      <path id="联合_4" data-name="联合 4" d="M-137.728-327.272A17.883,17.883,0,0,1-143-340a17.882,17.882,0,0,1,5.272-12.728A17.882,17.882,0,0,1-125-358a17.882,17.882,0,0,1,12.728,5.272A17.882,17.882,0,0,1-107-340a17.883,17.883,0,0,1-5.272,12.729A17.88,17.88,0,0,1-125-322,17.881,17.881,0,0,1-137.728-327.272ZM-140.546-340A15.563,15.563,0,0,0-125-324.455,15.563,15.563,0,0,0-109.455-340,15.563,15.563,0,0,0-125-355.546,15.563,15.563,0,0,0-140.546-340Zm8.951,6.6a1.23,1.23,0,0,1-.317-1.192l2.454-9a1.231,1.231,0,0,1,.861-.861l9-2.454a1.218,1.218,0,0,1,.323-.043,1.224,1.224,0,0,1,.869.36,1.231,1.231,0,0,1,.316,1.191l-2.454,9a1.234,1.234,0,0,1-.861.861l-9,2.454a1.23,1.23,0,0,1-.324.043A1.216,1.216,0,0,1-131.595-333.4Zm4.323-8.869-1.706,6.251,6.251-1.7,1.7-6.251Z" transform="translate(143 358)" fill="#fff"/>
    </g>
  </g>
</svg>
